<svg xmlns="http://www.w3.org/2000/svg" viewBox="0 0 193.41 222.12"><defs><style>.cls-1{fill:#262c5f;}.cls-2{fill:#00a2ac;}</style></defs><g id="Livello_2" data-name="Livello 2"><g id="Livello_1-2" data-name="Livello 1"><path class="cls-1" d="M149.16,38.22s-3.85,3-6.8,12.29c-1.13,3.57-.31,8.73-.31,8.73s.21,6.05-8.35,8.72-12.78,12.2-12.78,12.2-3,6.62-18.25,12.2c-2.17.79-9.9,1.29-9.9,1.29s-6.39.49-9,1.48-9.69,4.27-9.69,4.27A15.23,15.23,0,0,1,67,100.69c-3.91-.3-10,6.54-10,6.54s7.63-3,9.28-2.28c-2.37.79-2.88,3.87-2.88,3.87s4.63-4.37,8.76-4.47,2,4.37,2,4.37-6.39,6-5.78,9.42c-.51,3.77,1.14,10.41,1.14,10.41s-.1,8-4.54,13.19a43.58,43.58,0,0,1-9.38,8.13S48.4,159.55,48,168.28a58.48,58.48,0,0,0-.14,8.24l6.6-1.83s.27-16.79,9.86-22.44c21.34-4.73,39.08-31.83,39.08-31.83s8.4,1,15.46,1.29c15.74.56,28.46-12,28.46-12s-2.06,7,.72,13.19.1,18.54.1,18.54-1.44,5.71,1.65,6.8l5.67-2.34-.62-1.59s-2.37-11.4-.3-19a57,57,0,0,0,2.68-7.94s3.85-16.65,6.39-18.84c3-2.6,7.52-10.31,7.52-10.31s6.91-14.84-3.19-21c-7.05-4.31.82-8.53.82-8.53l1.76,9.42,1.89-.92L174.32,71l2.75-7.67-1.79-5.42s6.33,1.85,9.76-2.31a5.09,5.09,0,0,0,0-4.17s-7.94-10-8.45-13.78.21-5.95-3.92-7.83c-2.58-1.19-3.3-1-3.3-1S167.07-4.45,132.53.5C91.43,8.57,104.38,42.6,106.69,47c2.47,4.76,7,6.48,11,7.27-2.16-2.18-5.49-5-7.28-10.44-1.34-4.07-8.11-32.13,23.09-36.36C158.41,4.13,157.93,30,157.93,30s-3.2.49-4.74,2.08-9.18-2-9.18-2-.21,4,2.06,6.24S149.16,38.22,149.16,38.22Z"/><path class="cls-2" d="M117.83,164.44s1.83-4.83-5.84-3.93c-9.78,1.16-67.14,19-67.14,19a5.07,5.07,0,0,0-4.26-3.54c-5.09-.42-18.17,21.74-18.17,21.74s-5.76-4.93-8.79-.78S0,222.12,0,222.12s144.23-.82,150-2.67c2.95-1.18,8.59-7.44,9-18.14s9.49-9.45,9.49-9.45,9.58.46,6.76-11.16,8.52-11.59,11.86-12.25c5.69.51,8.71-7.16,4.15-9.13s-2.56-7.45-2.56-7.45,2.13-8-11.81-8.79C161.48,142.25,117.83,164.44,117.83,164.44Z"/></g></g></svg>